<?xml version="1.0" encoding="utf-8" standalone="no"?>
<!DOCTYPE svg PUBLIC "-//W3C//DTD SVG 1.1//EN"
  "http://www.w3.org/Graphics/SVG/1.1/DTD/svg11.dtd">
<svg xmlns:xlink="http://www.w3.org/1999/xlink" width="720pt" height="432pt" viewBox="0 0 720 432" xmlns="http://www.w3.org/2000/svg" version="1.1">
 <metadata>
  <rdf:RDF xmlns:dc="http://purl.org/dc/elements/1.1/" xmlns:cc="http://creativecommons.org/ns#" xmlns:rdf="http://www.w3.org/1999/02/22-rdf-syntax-ns#">
   <cc:Work>
    <dc:type rdf:resource="http://purl.org/dc/dcmitype/StillImage"/>
    <dc:date>2025-06-06T14:22:19.474928</dc:date>
    <dc:format>image/svg+xml</dc:format>
    <dc:creator>
     <cc:Agent>
      <dc:title>Matplotlib v3.10.0, https://matplotlib.org/</dc:title>
     </cc:Agent>
    </dc:creator>
   </cc:Work>
  </rdf:RDF>
 </metadata>
 <defs>
  <style type="text/css">*{stroke-linejoin: round; stroke-linecap: butt}</style>
 </defs>
 <g id="figure_1">
  <g id="patch_1">
   <path d="M 0 432 
L 720 432 
L 720 0 
L 0 0 
z
" style="fill: #ffffff"/>
  </g>
  <g id="axes_1">
   <g id="patch_2">
    <path d="M 57.53 364.408 
L 709.2 364.408 
L 709.2 32.64 
L 57.53 32.64 
z
" style="fill: #ffffff"/>
   </g>
   <g id="patch_3">
    <path d="M 113.547573 364.408 
L 119.503686 364.408 
L 119.503686 363.996045 
L 113.547573 363.996045 
z
" clip-path="url(#peac529aa9c)" style="fill: #1f77b4"/>
   </g>
   <g id="patch_4">
    <path d="M 119.503686 364.408 
L 125.459799 364.408 
L 125.459799 364.408 
L 119.503686 364.408 
z
" clip-path="url(#peac529aa9c)" style="fill: #1f77b4"/>
   </g>
   <g id="patch_5">
    <path d="M 125.459799 364.408 
L 131.415917 364.408 
L 131.415917 363.172135 
L 125.459799 363.172135 
z
" clip-path="url(#peac529aa9c)" style="fill: #1f77b4"/>
   </g>
   <g id="patch_6">
    <path d="M 131.415917 364.408 
L 137.372026 364.408 
L 137.372026 363.996045 
L 131.415917 363.996045 
z
" clip-path="url(#peac529aa9c)" style="fill: #1f77b4"/>
   </g>
   <g id="patch_7">
    <path d="M 137.372026 364.408 
L 143.328144 364.408 
L 143.328144 361.11236 
L 137.372026 361.11236 
z
" clip-path="url(#peac529aa9c)" style="fill: #1f77b4"/>
   </g>
   <g id="patch_8">
    <path d="M 143.328144 364.408 
L 149.284252 364.408 
L 149.284252 360.700405 
L 143.328144 360.700405 
z
" clip-path="url(#peac529aa9c)" style="fill: #1f77b4"/>
   </g>
   <g id="patch_9">
    <path d="M 149.284252 364.408 
L 155.24037 364.408 
L 155.24037 359.876494 
L 149.284252 359.876494 
z
" clip-path="url(#peac529aa9c)" style="fill: #1f77b4"/>
   </g>
   <g id="patch_10">
    <path d="M 155.24037 364.408 
L 161.196488 364.408 
L 161.196488 359.876494 
L 155.24037 359.876494 
z
" clip-path="url(#peac529aa9c)" style="fill: #1f77b4"/>
   </g>
   <g id="patch_11">
    <path d="M 161.196488 364.408 
L 167.152596 364.408 
L 167.152596 353.285214 
L 161.196488 353.285214 
z
" clip-path="url(#peac529aa9c)" style="fill: #1f77b4"/>
   </g>
   <g id="patch_12">
    <path d="M 167.152596 364.408 
L 173.108705 364.408 
L 173.108705 356.580854 
L 167.152596 356.580854 
z
" clip-path="url(#peac529aa9c)" style="fill: #1f77b4"/>
   </g>
   <g id="patch_13">
    <path d="M 173.108705 364.408 
L 179.064823 364.408 
L 179.064823 353.285214 
L 173.108705 353.285214 
z
" clip-path="url(#peac529aa9c)" style="fill: #1f77b4"/>
   </g>
   <g id="patch_14">
    <path d="M 179.064823 364.408 
L 185.020941 364.408 
L 185.020941 344.634158 
L 179.064823 344.634158 
z
" clip-path="url(#peac529aa9c)" style="fill: #1f77b4"/>
   </g>
   <g id="patch_15">
    <path d="M 185.020941 364.408 
L 190.977049 364.408 
L 190.977049 338.866787 
L 185.020941 338.866787 
z
" clip-path="url(#peac529aa9c)" style="fill: #1f77b4"/>
   </g>
   <g id="patch_16">
    <path d="M 190.977049 364.408 
L 196.933167 364.408 
L 196.933167 333.923326 
L 190.977049 333.923326 
z
" clip-path="url(#peac529aa9c)" style="fill: #1f77b4"/>
   </g>
   <g id="patch_17">
    <path d="M 196.933167 364.408 
L 202.889275 364.408 
L 202.889275 320.740765 
L 196.933167 320.740765 
z
" clip-path="url(#peac529aa9c)" style="fill: #1f77b4"/>
   </g>
   <g id="patch_18">
    <path d="M 202.889275 364.408 
L 208.845393 364.408 
L 208.845393 326.508135 
L 202.889275 326.508135 
z
" clip-path="url(#peac529aa9c)" style="fill: #1f77b4"/>
   </g>
   <g id="patch_19">
    <path d="M 208.845393 364.408 
L 214.801511 364.408 
L 214.801511 327.332045 
L 208.845393 327.332045 
z
" clip-path="url(#peac529aa9c)" style="fill: #1f77b4"/>
   </g>
   <g id="patch_20">
    <path d="M 214.801511 364.408 
L 220.75761 364.408 
L 220.75761 321.97663 
L 214.801511 321.97663 
z
" clip-path="url(#peac529aa9c)" style="fill: #1f77b4"/>
   </g>
   <g id="patch_21">
    <path d="M 220.75761 364.408 
L 226.713738 364.408 
L 226.713738 310.029933 
L 220.75761 310.029933 
z
" clip-path="url(#peac529aa9c)" style="fill: #1f77b4"/>
   </g>
   <g id="patch_22">
    <path d="M 226.713738 364.408 
L 232.669846 364.408 
L 232.669846 298.907147 
L 226.713738 298.907147 
z
" clip-path="url(#peac529aa9c)" style="fill: #1f77b4"/>
   </g>
   <g id="patch_23">
    <path d="M 232.669846 364.408 
L 238.625974 364.408 
L 238.625974 276.249619 
L 232.669846 276.249619 
z
" clip-path="url(#peac529aa9c)" style="fill: #1f77b4"/>
   </g>
   <g id="patch_24">
    <path d="M 238.625974 364.408 
L 244.582082 364.408 
L 244.582082 255.239912 
L 238.625974 255.239912 
z
" clip-path="url(#peac529aa9c)" style="fill: #1f77b4"/>
   </g>
   <g id="patch_25">
    <path d="M 244.582082 364.408 
L 250.53819 364.408 
L 250.53819 207.865081 
L 244.582082 207.865081 
z
" clip-path="url(#peac529aa9c)" style="fill: #1f77b4"/>
   </g>
   <g id="patch_26">
    <path d="M 250.53819 364.408 
L 256.494298 364.408 
L 256.494298 173.260857 
L 250.53819 173.260857 
z
" clip-path="url(#peac529aa9c)" style="fill: #1f77b4"/>
   </g>
   <g id="patch_27">
    <path d="M 256.494298 364.408 
L 262.450407 364.408 
L 262.450407 107.760003 
L 256.494298 107.760003 
z
" clip-path="url(#peac529aa9c)" style="fill: #1f77b4"/>
   </g>
   <g id="patch_28">
    <path d="M 262.450407 364.408 
L 268.406535 364.408 
L 268.406535 97.873082 
L 262.450407 97.873082 
z
" clip-path="url(#peac529aa9c)" style="fill: #1f77b4"/>
   </g>
   <g id="patch_29">
    <path d="M 268.406535 364.408 
L 274.362643 364.408 
L 274.362643 50.086296 
L 268.406535 50.086296 
z
" clip-path="url(#peac529aa9c)" style="fill: #1f77b4"/>
   </g>
   <g id="patch_30">
    <path d="M 274.362643 364.408 
L 280.318771 364.408 
L 280.318771 59.561263 
L 274.362643 59.561263 
z
" clip-path="url(#peac529aa9c)" style="fill: #1f77b4"/>
   </g>
   <g id="patch_31">
    <path d="M 280.318771 364.408 
L 286.274879 364.408 
L 286.274879 75.215554 
L 280.318771 75.215554 
z
" clip-path="url(#peac529aa9c)" style="fill: #1f77b4"/>
   </g>
   <g id="patch_32">
    <path d="M 286.274879 364.408 
L 292.230987 364.408 
L 292.230987 79.74706 
L 286.274879 79.74706 
z
" clip-path="url(#peac529aa9c)" style="fill: #1f77b4"/>
   </g>
   <g id="patch_33">
    <path d="M 292.230987 364.408 
L 298.187095 364.408 
L 298.187095 68.212319 
L 292.230987 68.212319 
z
" clip-path="url(#peac529aa9c)" style="fill: #1f77b4"/>
   </g>
   <g id="patch_34">
    <path d="M 298.187095 364.408 
L 304.143204 364.408 
L 304.143204 48.438476 
L 298.187095 48.438476 
z
" clip-path="url(#peac529aa9c)" style="fill: #1f77b4"/>
   </g>
   <g id="patch_35">
    <path d="M 304.143204 364.408 
L 310.099312 364.408 
L 310.099312 48.438476 
L 304.143204 48.438476 
z
" clip-path="url(#peac529aa9c)" style="fill: #1f77b4"/>
   </g>
   <g id="patch_36">
    <path d="M 310.099312 364.408 
L 316.055459 364.408 
L 316.055459 50.086296 
L 310.099312 50.086296 
z
" clip-path="url(#peac529aa9c)" style="fill: #1f77b4"/>
   </g>
   <g id="patch_37">
    <path d="M 316.055459 364.408 
L 322.011567 364.408 
L 322.011567 61.621038 
L 316.055459 61.621038 
z
" clip-path="url(#peac529aa9c)" style="fill: #1f77b4"/>
   </g>
   <g id="patch_38">
    <path d="M 322.011567 364.408 
L 327.967676 364.408 
L 327.967676 92.929622 
L 322.011567 92.929622 
z
" clip-path="url(#peac529aa9c)" style="fill: #1f77b4"/>
   </g>
   <g id="patch_39">
    <path d="M 327.967676 364.408 
L 333.923784 364.408 
L 333.923784 93.753532 
L 327.967676 93.753532 
z
" clip-path="url(#peac529aa9c)" style="fill: #1f77b4"/>
   </g>
   <g id="patch_40">
    <path d="M 333.923784 364.408 
L 339.879892 364.408 
L 339.879892 97.049172 
L 333.923784 97.049172 
z
" clip-path="url(#peac529aa9c)" style="fill: #1f77b4"/>
   </g>
   <g id="patch_41">
    <path d="M 339.879892 364.408 
L 345.836001 364.408 
L 345.836001 116.41106 
L 339.879892 116.41106 
z
" clip-path="url(#peac529aa9c)" style="fill: #1f77b4"/>
   </g>
   <g id="patch_42">
    <path d="M 345.836001 364.408 
L 351.792109 364.408 
L 351.792109 141.952273 
L 345.836001 141.952273 
z
" clip-path="url(#peac529aa9c)" style="fill: #1f77b4"/>
   </g>
   <g id="patch_43">
    <path d="M 351.792109 364.408 
L 357.748256 364.408 
L 357.748256 139.480542 
L 351.792109 139.480542 
z
" clip-path="url(#peac529aa9c)" style="fill: #1f77b4"/>
   </g>
   <g id="patch_44">
    <path d="M 357.748256 364.408 
L 363.704364 364.408 
L 363.704364 148.543553 
L 357.748256 148.543553 
z
" clip-path="url(#peac529aa9c)" style="fill: #1f77b4"/>
   </g>
   <g id="patch_45">
    <path d="M 363.704364 364.408 
L 369.660473 364.408 
L 369.660473 137.420767 
L 363.704364 137.420767 
z
" clip-path="url(#peac529aa9c)" style="fill: #1f77b4"/>
   </g>
   <g id="patch_46">
    <path d="M 369.660473 364.408 
L 375.616581 364.408 
L 375.616581 173.672812 
L 369.660473 173.672812 
z
" clip-path="url(#peac529aa9c)" style="fill: #1f77b4"/>
   </g>
   <g id="patch_47">
    <path d="M 375.616581 364.408 
L 381.572689 364.408 
L 381.572689 188.091238 
L 375.616581 188.091238 
z
" clip-path="url(#peac529aa9c)" style="fill: #1f77b4"/>
   </g>
   <g id="patch_48">
    <path d="M 381.572689 364.408 
L 387.528798 364.408 
L 387.528798 192.622744 
L 381.572689 192.622744 
z
" clip-path="url(#peac529aa9c)" style="fill: #1f77b4"/>
   </g>
   <g id="patch_49">
    <path d="M 387.528798 364.408 
L 393.484906 364.408 
L 393.484906 197.566205 
L 387.528798 197.566205 
z
" clip-path="url(#peac529aa9c)" style="fill: #1f77b4"/>
   </g>
   <g id="patch_50">
    <path d="M 393.484906 364.408 
L 399.441053 364.408 
L 399.441053 206.217261 
L 393.484906 206.217261 
z
" clip-path="url(#peac529aa9c)" style="fill: #1f77b4"/>
   </g>
   <g id="patch_51">
    <path d="M 399.441053 364.408 
L 405.397161 364.408 
L 405.397161 204.157485 
L 399.441053 204.157485 
z
" clip-path="url(#peac529aa9c)" style="fill: #1f77b4"/>
   </g>
   <g id="patch_52">
    <path d="M 405.397161 364.408 
L 411.35327 364.408 
L 411.35327 208.688991 
L 405.397161 208.688991 
z
" clip-path="url(#peac529aa9c)" style="fill: #1f77b4"/>
   </g>
   <g id="patch_53">
    <path d="M 411.35327 364.408 
L 417.309378 364.408 
L 417.309378 219.811777 
L 411.35327 219.811777 
z
" clip-path="url(#peac529aa9c)" style="fill: #1f77b4"/>
   </g>
   <g id="patch_54">
    <path d="M 417.309378 364.408 
L 423.265486 364.408 
L 423.265486 223.107418 
L 417.309378 223.107418 
z
" clip-path="url(#peac529aa9c)" style="fill: #1f77b4"/>
   </g>
   <g id="patch_55">
    <path d="M 423.265486 364.408 
L 429.221595 364.408 
L 429.221595 234.642159 
L 423.265486 234.642159 
z
" clip-path="url(#peac529aa9c)" style="fill: #1f77b4"/>
   </g>
   <g id="patch_56">
    <path d="M 429.221595 364.408 
L 435.177703 364.408 
L 435.177703 228.050878 
L 429.221595 228.050878 
z
" clip-path="url(#peac529aa9c)" style="fill: #1f77b4"/>
   </g>
   <g id="patch_57">
    <path d="M 435.177703 364.408 
L 441.13385 364.408 
L 441.13385 254.004046 
L 435.177703 254.004046 
z
" clip-path="url(#peac529aa9c)" style="fill: #1f77b4"/>
   </g>
   <g id="patch_58">
    <path d="M 441.13385 364.408 
L 447.089958 364.408 
L 447.089958 249.060586 
L 441.13385 249.060586 
z
" clip-path="url(#peac529aa9c)" style="fill: #1f77b4"/>
   </g>
   <g id="patch_59">
    <path d="M 447.089958 364.408 
L 453.046067 364.408 
L 453.046067 251.944271 
L 447.089958 251.944271 
z
" clip-path="url(#peac529aa9c)" style="fill: #1f77b4"/>
   </g>
   <g id="patch_60">
    <path d="M 453.046067 364.408 
L 459.002175 364.408 
L 459.002175 257.299687 
L 453.046067 257.299687 
z
" clip-path="url(#peac529aa9c)" style="fill: #1f77b4"/>
   </g>
   <g id="patch_61">
    <path d="M 459.002175 364.408 
L 464.958283 364.408 
L 464.958283 265.950743 
L 459.002175 265.950743 
z
" clip-path="url(#peac529aa9c)" style="fill: #1f77b4"/>
   </g>
   <g id="patch_62">
    <path d="M 464.958283 364.408 
L 470.914391 364.408 
L 470.914391 268.422473 
L 464.958283 268.422473 
z
" clip-path="url(#peac529aa9c)" style="fill: #1f77b4"/>
   </g>
   <g id="patch_63">
    <path d="M 470.914391 364.408 
L 476.870539 364.408 
L 476.870539 278.721349 
L 470.914391 278.721349 
z
" clip-path="url(#peac529aa9c)" style="fill: #1f77b4"/>
   </g>
   <g id="patch_64">
    <path d="M 476.870539 364.408 
L 482.826647 364.408 
L 482.826647 290.668046 
L 476.870539 290.668046 
z
" clip-path="url(#peac529aa9c)" style="fill: #1f77b4"/>
   </g>
   <g id="patch_65">
    <path d="M 482.826647 364.408 
L 488.782755 364.408 
L 488.782755 286.548495 
L 482.826647 286.548495 
z
" clip-path="url(#peac529aa9c)" style="fill: #1f77b4"/>
   </g>
   <g id="patch_66">
    <path d="M 488.782755 364.408 
L 494.738863 364.408 
L 494.738863 305.498428 
L 488.782755 305.498428 
z
" clip-path="url(#peac529aa9c)" style="fill: #1f77b4"/>
   </g>
   <g id="patch_67">
    <path d="M 494.738863 364.408 
L 500.694972 364.408 
L 500.694972 303.438653 
L 494.738863 303.438653 
z
" clip-path="url(#peac529aa9c)" style="fill: #1f77b4"/>
   </g>
   <g id="patch_68">
    <path d="M 500.694972 364.408 
L 506.65108 364.408 
L 506.65108 302.202787 
L 500.694972 302.202787 
z
" clip-path="url(#peac529aa9c)" style="fill: #1f77b4"/>
   </g>
   <g id="patch_69">
    <path d="M 506.65108 364.408 
L 512.607188 364.408 
L 512.607188 311.265798 
L 506.65108 311.265798 
z
" clip-path="url(#peac529aa9c)" style="fill: #1f77b4"/>
   </g>
   <g id="patch_70">
    <path d="M 512.607188 364.408 
L 518.563336 364.408 
L 518.563336 310.029933 
L 512.607188 310.029933 
z
" clip-path="url(#peac529aa9c)" style="fill: #1f77b4"/>
   </g>
   <g id="patch_71">
    <path d="M 518.563336 364.408 
L 524.519444 364.408 
L 524.519444 307.146248 
L 518.563336 307.146248 
z
" clip-path="url(#peac529aa9c)" style="fill: #1f77b4"/>
   </g>
   <g id="patch_72">
    <path d="M 524.519444 364.408 
L 530.475552 364.408 
L 530.475552 315.797304 
L 524.519444 315.797304 
z
" clip-path="url(#peac529aa9c)" style="fill: #1f77b4"/>
   </g>
   <g id="patch_73">
    <path d="M 530.475552 364.408 
L 536.43166 364.408 
L 536.43166 325.27227 
L 530.475552 325.27227 
z
" clip-path="url(#peac529aa9c)" style="fill: #1f77b4"/>
   </g>
   <g id="patch_74">
    <path d="M 536.43166 364.408 
L 542.387769 364.408 
L 542.387769 324.44836 
L 536.43166 324.44836 
z
" clip-path="url(#peac529aa9c)" style="fill: #1f77b4"/>
   </g>
   <g id="patch_75">
    <path d="M 542.387769 364.408 
L 548.343877 364.408 
L 548.343877 326.508135 
L 542.387769 326.508135 
z
" clip-path="url(#peac529aa9c)" style="fill: #1f77b4"/>
   </g>
   <g id="patch_76">
    <path d="M 548.343877 364.408 
L 554.299985 364.408 
L 554.299985 328.155956 
L 548.343877 328.155956 
z
" clip-path="url(#peac529aa9c)" style="fill: #1f77b4"/>
   </g>
   <g id="patch_77">
    <path d="M 554.299985 364.408 
L 560.256132 364.408 
L 560.256132 331.039641 
L 554.299985 331.039641 
z
" clip-path="url(#peac529aa9c)" style="fill: #1f77b4"/>
   </g>
   <g id="patch_78">
    <path d="M 560.256132 364.408 
L 566.212241 364.408 
L 566.212241 330.627686 
L 560.256132 330.627686 
z
" clip-path="url(#peac529aa9c)" style="fill: #1f77b4"/>
   </g>
   <g id="patch_79">
    <path d="M 566.212241 364.408 
L 572.168349 364.408 
L 572.168349 330.627686 
L 566.212241 330.627686 
z
" clip-path="url(#peac529aa9c)" style="fill: #1f77b4"/>
   </g>
   <g id="patch_80">
    <path d="M 572.168349 364.408 
L 578.124457 364.408 
L 578.124457 332.687461 
L 572.168349 332.687461 
z
" clip-path="url(#peac529aa9c)" style="fill: #1f77b4"/>
   </g>
   <g id="patch_81">
    <path d="M 578.124457 364.408 
L 584.080566 364.408 
L 584.080566 335.159191 
L 578.124457 335.159191 
z
" clip-path="url(#peac529aa9c)" style="fill: #1f77b4"/>
   </g>
   <g id="patch_82">
    <path d="M 584.080566 364.408 
L 590.036674 364.408 
L 590.036674 341.338517 
L 584.080566 341.338517 
z
" clip-path="url(#peac529aa9c)" style="fill: #1f77b4"/>
   </g>
   <g id="patch_83">
    <path d="M 590.036674 364.408 
L 595.992782 364.408 
L 595.992782 331.451596 
L 590.036674 331.451596 
z
" clip-path="url(#peac529aa9c)" style="fill: #1f77b4"/>
   </g>
   <g id="patch_84">
    <path d="M 595.992782 364.408 
L 601.948929 364.408 
L 601.948929 345.458068 
L 595.992782 345.458068 
z
" clip-path="url(#peac529aa9c)" style="fill: #1f77b4"/>
   </g>
   <g id="patch_85">
    <path d="M 601.948929 364.408 
L 607.905038 364.408 
L 607.905038 339.278742 
L 601.948929 339.278742 
z
" clip-path="url(#peac529aa9c)" style="fill: #1f77b4"/>
   </g>
   <g id="patch_86">
    <path d="M 607.905038 364.408 
L 613.861146 364.408 
L 613.861146 347.517843 
L 607.905038 347.517843 
z
" clip-path="url(#peac529aa9c)" style="fill: #1f77b4"/>
   </g>
   <g id="patch_87">
    <path d="M 613.861146 364.408 
L 619.817254 364.408 
L 619.817254 343.810247 
L 613.861146 343.810247 
z
" clip-path="url(#peac529aa9c)" style="fill: #1f77b4"/>
   </g>
   <g id="patch_88">
    <path d="M 619.817254 364.408 
L 625.773363 364.408 
L 625.773363 344.222203 
L 619.817254 344.222203 
z
" clip-path="url(#peac529aa9c)" style="fill: #1f77b4"/>
   </g>
   <g id="patch_89">
    <path d="M 625.773363 364.408 
L 631.729471 364.408 
L 631.729471 347.517843 
L 625.773363 347.517843 
z
" clip-path="url(#peac529aa9c)" style="fill: #1f77b4"/>
   </g>
   <g id="patch_90">
    <path d="M 631.729471 364.408 
L 637.685579 364.408 
L 637.685579 350.813483 
L 631.729471 350.813483 
z
" clip-path="url(#peac529aa9c)" style="fill: #1f77b4"/>
   </g>
   <g id="patch_91">
    <path d="M 637.685579 364.408 
L 643.641726 364.408 
L 643.641726 349.577618 
L 637.685579 349.577618 
z
" clip-path="url(#peac529aa9c)" style="fill: #1f77b4"/>
   </g>
   <g id="patch_92">
    <path d="M 643.641726 364.408 
L 649.597835 364.408 
L 649.597835 349.577618 
L 643.641726 349.577618 
z
" clip-path="url(#peac529aa9c)" style="fill: #1f77b4"/>
   </g>
   <g id="patch_93">
    <path d="M 649.597835 364.408 
L 655.553943 364.408 
L 655.553943 351.225438 
L 649.597835 351.225438 
z
" clip-path="url(#peac529aa9c)" style="fill: #1f77b4"/>
   </g>
   <g id="patch_94">
    <path d="M 655.553943 364.408 
L 661.510051 364.408 
L 661.510051 353.285214 
L 655.553943 353.285214 
z
" clip-path="url(#peac529aa9c)" style="fill: #1f77b4"/>
   </g>
   <g id="patch_95">
    <path d="M 661.510051 364.408 
L 667.46616 364.408 
L 667.46616 352.049348 
L 661.510051 352.049348 
z
" clip-path="url(#peac529aa9c)" style="fill: #1f77b4"/>
   </g>
   <g id="patch_96">
    <path d="M 667.46616 364.408 
L 673.422268 364.408 
L 673.422268 354.521079 
L 667.46616 354.521079 
z
" clip-path="url(#peac529aa9c)" style="fill: #1f77b4"/>
   </g>
   <g id="patch_97">
    <path d="M 673.422268 364.408 
L 679.378376 364.408 
L 679.378376 350.401528 
L 673.422268 350.401528 
z
" clip-path="url(#peac529aa9c)" style="fill: #1f77b4"/>
   </g>
   <g id="patch_98">
    <path d="M 679.378376 364.408 
L 685.334523 364.408 
L 685.334523 354.109124 
L 679.378376 354.109124 
z
" clip-path="url(#peac529aa9c)" style="fill: #1f77b4"/>
   </g>
   <g id="patch_99">
    <path d="M 685.334523 364.408 
L 691.290632 364.408 
L 691.290632 355.344989 
L 685.334523 355.344989 
z
" clip-path="url(#peac529aa9c)" style="fill: #1f77b4"/>
   </g>
   <g id="patch_100">
    <path d="M 691.290632 364.408 
L 697.24674 364.408 
L 697.24674 353.697169 
L 691.290632 353.697169 
z
" clip-path="url(#peac529aa9c)" style="fill: #1f77b4"/>
   </g>
   <g id="patch_101">
    <path d="M 697.24674 364.408 
L 703.202848 364.408 
L 703.202848 356.580854 
L 697.24674 356.580854 
z
" clip-path="url(#peac529aa9c)" style="fill: #1f77b4"/>
   </g>
   <g id="patch_102">
    <path d="M 703.202848 364.408 
L 709.158956 364.408 
L 709.158956 355.344989 
L 703.202848 355.344989 
z
" clip-path="url(#peac529aa9c)" style="fill: #1f77b4"/>
   </g>
   <g id="matplotlib.axis_1">
    <g id="xtick_1">
     <g id="line2d_1">
      <defs>
       <path id="m1ff5f0b53d" d="M 0 0 
L 0 3.5 
" style="stroke: #000000; stroke-width: 0.8"/>
      </defs>
      <g>
       <use xlink:href="#m1ff5f0b53d" x="57.53" y="364.408" style="stroke: #000000; stroke-width: 0.8"/>
      </g>
     </g>
     <g id="text_1">
      <!-- 0 -->
      <g transform="translate(54.34875 379.006438) scale(0.1 -0.1)">
       <defs>
        <path id="DejaVuSans-30" d="M 2034 4250 
Q 1547 4250 1301 3770 
Q 1056 3291 1056 2328 
Q 1056 1369 1301 889 
Q 1547 409 2034 409 
Q 2525 409 2770 889 
Q 3016 1369 3016 2328 
Q 3016 3291 2770 3770 
Q 2525 4250 2034 4250 
z
M 2034 4750 
Q 2819 4750 3233 4129 
Q 3647 3509 3647 2328 
Q 3647 1150 3233 529 
Q 2819 -91 2034 -91 
Q 1250 -91 836 529 
Q 422 1150 422 2328 
Q 422 3509 836 4129 
Q 1250 4750 2034 4750 
z
" transform="scale(0.015625)"/>
       </defs>
       <use xlink:href="#DejaVuSans-30"/>
      </g>
     </g>
    </g>
    <g id="xtick_2">
     <g id="line2d_2">
      <g>
       <use xlink:href="#m1ff5f0b53d" x="157.120064" y="364.408" style="stroke: #000000; stroke-width: 0.8"/>
      </g>
     </g>
     <g id="text_2">
      <!-- 10000 -->
      <g transform="translate(141.213814 379.006438) scale(0.1 -0.1)">
       <defs>
        <path id="DejaVuSans-31" d="M 794 531 
L 1825 531 
L 1825 4091 
L 703 3866 
L 703 4441 
L 1819 4666 
L 2450 4666 
L 2450 531 
L 3481 531 
L 3481 0 
L 794 0 
L 794 531 
z
" transform="scale(0.015625)"/>
       </defs>
       <use xlink:href="#DejaVuSans-31"/>
       <use xlink:href="#DejaVuSans-30" transform="translate(63.623047 0)"/>
       <use xlink:href="#DejaVuSans-30" transform="translate(127.246094 0)"/>
       <use xlink:href="#DejaVuSans-30" transform="translate(190.869141 0)"/>
       <use xlink:href="#DejaVuSans-30" transform="translate(254.492188 0)"/>
      </g>
     </g>
    </g>
    <g id="xtick_3">
     <g id="line2d_3">
      <g>
       <use xlink:href="#m1ff5f0b53d" x="256.710129" y="364.408" style="stroke: #000000; stroke-width: 0.8"/>
      </g>
     </g>
     <g id="text_3">
      <!-- 20000 -->
      <g transform="translate(240.803879 379.006438) scale(0.1 -0.1)">
       <defs>
        <path id="DejaVuSans-32" d="M 1228 531 
L 3431 531 
L 3431 0 
L 469 0 
L 469 531 
Q 828 903 1448 1529 
Q 2069 2156 2228 2338 
Q 2531 2678 2651 2914 
Q 2772 3150 2772 3378 
Q 2772 3750 2511 3984 
Q 2250 4219 1831 4219 
Q 1534 4219 1204 4116 
Q 875 4013 500 3803 
L 500 4441 
Q 881 4594 1212 4672 
Q 1544 4750 1819 4750 
Q 2544 4750 2975 4387 
Q 3406 4025 3406 3419 
Q 3406 3131 3298 2873 
Q 3191 2616 2906 2266 
Q 2828 2175 2409 1742 
Q 1991 1309 1228 531 
z
" transform="scale(0.015625)"/>
       </defs>
       <use xlink:href="#DejaVuSans-32"/>
       <use xlink:href="#DejaVuSans-30" transform="translate(63.623047 0)"/>
       <use xlink:href="#DejaVuSans-30" transform="translate(127.246094 0)"/>
       <use xlink:href="#DejaVuSans-30" transform="translate(190.869141 0)"/>
       <use xlink:href="#DejaVuSans-30" transform="translate(254.492188 0)"/>
      </g>
     </g>
    </g>
    <g id="xtick_4">
     <g id="line2d_4">
      <g>
       <use xlink:href="#m1ff5f0b53d" x="356.300193" y="364.408" style="stroke: #000000; stroke-width: 0.8"/>
      </g>
     </g>
     <g id="text_4">
      <!-- 30000 -->
      <g transform="translate(340.393943 379.006438) scale(0.1 -0.1)">
       <defs>
        <path id="DejaVuSans-33" d="M 2597 2516 
Q 3050 2419 3304 2112 
Q 3559 1806 3559 1356 
Q 3559 666 3084 287 
Q 2609 -91 1734 -91 
Q 1441 -91 1130 -33 
Q 819 25 488 141 
L 488 750 
Q 750 597 1062 519 
Q 1375 441 1716 441 
Q 2309 441 2620 675 
Q 2931 909 2931 1356 
Q 2931 1769 2642 2001 
Q 2353 2234 1838 2234 
L 1294 2234 
L 1294 2753 
L 1863 2753 
Q 2328 2753 2575 2939 
Q 2822 3125 2822 3475 
Q 2822 3834 2567 4026 
Q 2313 4219 1838 4219 
Q 1578 4219 1281 4162 
Q 984 4106 628 3988 
L 628 4550 
Q 988 4650 1302 4700 
Q 1616 4750 1894 4750 
Q 2613 4750 3031 4423 
Q 3450 4097 3450 3541 
Q 3450 3153 3228 2886 
Q 3006 2619 2597 2516 
z
" transform="scale(0.015625)"/>
       </defs>
       <use xlink:href="#DejaVuSans-33"/>
       <use xlink:href="#DejaVuSans-30" transform="translate(63.623047 0)"/>
       <use xlink:href="#DejaVuSans-30" transform="translate(127.246094 0)"/>
       <use xlink:href="#DejaVuSans-30" transform="translate(190.869141 0)"/>
       <use xlink:href="#DejaVuSans-30" transform="translate(254.492188 0)"/>
      </g>
     </g>
    </g>
    <g id="xtick_5">
     <g id="line2d_5">
      <g>
       <use xlink:href="#m1ff5f0b53d" x="455.890258" y="364.408" style="stroke: #000000; stroke-width: 0.8"/>
      </g>
     </g>
     <g id="text_5">
      <!-- 40000 -->
      <g transform="translate(439.984008 379.006438) scale(0.1 -0.1)">
       <defs>
        <path id="DejaVuSans-34" d="M 2419 4116 
L 825 1625 
L 2419 1625 
L 2419 4116 
z
M 2253 4666 
L 3047 4666 
L 3047 1625 
L 3713 1625 
L 3713 1100 
L 3047 1100 
L 3047 0 
L 2419 0 
L 2419 1100 
L 313 1100 
L 313 1709 
L 2253 4666 
z
" transform="scale(0.015625)"/>
       </defs>
       <use xlink:href="#DejaVuSans-34"/>
       <use xlink:href="#DejaVuSans-30" transform="translate(63.623047 0)"/>
       <use xlink:href="#DejaVuSans-30" transform="translate(127.246094 0)"/>
       <use xlink:href="#DejaVuSans-30" transform="translate(190.869141 0)"/>
       <use xlink:href="#DejaVuSans-30" transform="translate(254.492188 0)"/>
      </g>
     </g>
    </g>
    <g id="xtick_6">
     <g id="line2d_6">
      <g>
       <use xlink:href="#m1ff5f0b53d" x="555.480322" y="364.408" style="stroke: #000000; stroke-width: 0.8"/>
      </g>
     </g>
     <g id="text_6">
      <!-- 50000 -->
      <g transform="translate(539.574072 379.006438) scale(0.1 -0.1)">
       <defs>
        <path id="DejaVuSans-35" d="M 691 4666 
L 3169 4666 
L 3169 4134 
L 1269 4134 
L 1269 2991 
Q 1406 3038 1543 3061 
Q 1681 3084 1819 3084 
Q 2600 3084 3056 2656 
Q 3513 2228 3513 1497 
Q 3513 744 3044 326 
Q 2575 -91 1722 -91 
Q 1428 -91 1123 -41 
Q 819 9 494 109 
L 494 744 
Q 775 591 1075 516 
Q 1375 441 1709 441 
Q 2250 441 2565 725 
Q 2881 1009 2881 1497 
Q 2881 1984 2565 2268 
Q 2250 2553 1709 2553 
Q 1456 2553 1204 2497 
Q 953 2441 691 2322 
L 691 4666 
z
" transform="scale(0.015625)"/>
       </defs>
       <use xlink:href="#DejaVuSans-35"/>
       <use xlink:href="#DejaVuSans-30" transform="translate(63.623047 0)"/>
       <use xlink:href="#DejaVuSans-30" transform="translate(127.246094 0)"/>
       <use xlink:href="#DejaVuSans-30" transform="translate(190.869141 0)"/>
       <use xlink:href="#DejaVuSans-30" transform="translate(254.492188 0)"/>
      </g>
     </g>
    </g>
    <g id="xtick_7">
     <g id="line2d_7">
      <g>
       <use xlink:href="#m1ff5f0b53d" x="655.070386" y="364.408" style="stroke: #000000; stroke-width: 0.8"/>
      </g>
     </g>
     <g id="text_7">
      <!-- 60000 -->
      <g transform="translate(639.164136 379.006438) scale(0.1 -0.1)">
       <defs>
        <path id="DejaVuSans-36" d="M 2113 2584 
Q 1688 2584 1439 2293 
Q 1191 2003 1191 1497 
Q 1191 994 1439 701 
Q 1688 409 2113 409 
Q 2538 409 2786 701 
Q 3034 994 3034 1497 
Q 3034 2003 2786 2293 
Q 2538 2584 2113 2584 
z
M 3366 4563 
L 3366 3988 
Q 3128 4100 2886 4159 
Q 2644 4219 2406 4219 
Q 1781 4219 1451 3797 
Q 1122 3375 1075 2522 
Q 1259 2794 1537 2939 
Q 1816 3084 2150 3084 
Q 2853 3084 3261 2657 
Q 3669 2231 3669 1497 
Q 3669 778 3244 343 
Q 2819 -91 2113 -91 
Q 1303 -91 875 529 
Q 447 1150 447 2328 
Q 447 3434 972 4092 
Q 1497 4750 2381 4750 
Q 2619 4750 2861 4703 
Q 3103 4656 3366 4563 
z
" transform="scale(0.015625)"/>
       </defs>
       <use xlink:href="#DejaVuSans-36"/>
       <use xlink:href="#DejaVuSans-30" transform="translate(63.623047 0)"/>
       <use xlink:href="#DejaVuSans-30" transform="translate(127.246094 0)"/>
       <use xlink:href="#DejaVuSans-30" transform="translate(190.869141 0)"/>
       <use xlink:href="#DejaVuSans-30" transform="translate(254.492188 0)"/>
      </g>
     </g>
    </g>
    <g id="text_8">
     <!-- Arbitrary Units -->
     <g transform="translate(324.9575 397.243625) scale(0.16 -0.16)">
      <defs>
       <path id="DejaVuSans-41" d="M 2188 4044 
L 1331 1722 
L 3047 1722 
L 2188 4044 
z
M 1831 4666 
L 2547 4666 
L 4325 0 
L 3669 0 
L 3244 1197 
L 1141 1197 
L 716 0 
L 50 0 
L 1831 4666 
z
" transform="scale(0.015625)"/>
       <path id="DejaVuSans-72" d="M 2631 2963 
Q 2534 3019 2420 3045 
Q 2306 3072 2169 3072 
Q 1681 3072 1420 2755 
Q 1159 2438 1159 1844 
L 1159 0 
L 581 0 
L 581 3500 
L 1159 3500 
L 1159 2956 
Q 1341 3275 1631 3429 
Q 1922 3584 2338 3584 
Q 2397 3584 2469 3576 
Q 2541 3569 2628 3553 
L 2631 2963 
z
" transform="scale(0.015625)"/>
       <path id="DejaVuSans-62" d="M 3116 1747 
Q 3116 2381 2855 2742 
Q 2594 3103 2138 3103 
Q 1681 3103 1420 2742 
Q 1159 2381 1159 1747 
Q 1159 1113 1420 752 
Q 1681 391 2138 391 
Q 2594 391 2855 752 
Q 3116 1113 3116 1747 
z
M 1159 2969 
Q 1341 3281 1617 3432 
Q 1894 3584 2278 3584 
Q 2916 3584 3314 3078 
Q 3713 2572 3713 1747 
Q 3713 922 3314 415 
Q 2916 -91 2278 -91 
Q 1894 -91 1617 61 
Q 1341 213 1159 525 
L 1159 0 
L 581 0 
L 581 4863 
L 1159 4863 
L 1159 2969 
z
" transform="scale(0.015625)"/>
       <path id="DejaVuSans-69" d="M 603 3500 
L 1178 3500 
L 1178 0 
L 603 0 
L 603 3500 
z
M 603 4863 
L 1178 4863 
L 1178 4134 
L 603 4134 
L 603 4863 
z
" transform="scale(0.015625)"/>
       <path id="DejaVuSans-74" d="M 1172 4494 
L 1172 3500 
L 2356 3500 
L 2356 3053 
L 1172 3053 
L 1172 1153 
Q 1172 725 1289 603 
Q 1406 481 1766 481 
L 2356 481 
L 2356 0 
L 1766 0 
Q 1100 0 847 248 
Q 594 497 594 1153 
L 594 3053 
L 172 3053 
L 172 3500 
L 594 3500 
L 594 4494 
L 1172 4494 
z
" transform="scale(0.015625)"/>
       <path id="DejaVuSans-61" d="M 2194 1759 
Q 1497 1759 1228 1600 
Q 959 1441 959 1056 
Q 959 750 1161 570 
Q 1363 391 1709 391 
Q 2188 391 2477 730 
Q 2766 1069 2766 1631 
L 2766 1759 
L 2194 1759 
z
M 3341 1997 
L 3341 0 
L 2766 0 
L 2766 531 
Q 2569 213 2275 61 
Q 1981 -91 1556 -91 
Q 1019 -91 701 211 
Q 384 513 384 1019 
Q 384 1609 779 1909 
Q 1175 2209 1959 2209 
L 2766 2209 
L 2766 2266 
Q 2766 2663 2505 2880 
Q 2244 3097 1772 3097 
Q 1472 3097 1187 3025 
Q 903 2953 641 2809 
L 641 3341 
Q 956 3463 1253 3523 
Q 1550 3584 1831 3584 
Q 2591 3584 2966 3190 
Q 3341 2797 3341 1997 
z
" transform="scale(0.015625)"/>
       <path id="DejaVuSans-79" d="M 2059 -325 
Q 1816 -950 1584 -1140 
Q 1353 -1331 966 -1331 
L 506 -1331 
L 506 -850 
L 844 -850 
Q 1081 -850 1212 -737 
Q 1344 -625 1503 -206 
L 1606 56 
L 191 3500 
L 800 3500 
L 1894 763 
L 2988 3500 
L 3597 3500 
L 2059 -325 
z
" transform="scale(0.015625)"/>
       <path id="DejaVuSans-20" transform="scale(0.015625)"/>
       <path id="DejaVuSans-55" d="M 556 4666 
L 1191 4666 
L 1191 1831 
Q 1191 1081 1462 751 
Q 1734 422 2344 422 
Q 2950 422 3222 751 
Q 3494 1081 3494 1831 
L 3494 4666 
L 4128 4666 
L 4128 1753 
Q 4128 841 3676 375 
Q 3225 -91 2344 -91 
Q 1459 -91 1007 375 
Q 556 841 556 1753 
L 556 4666 
z
" transform="scale(0.015625)"/>
       <path id="DejaVuSans-6e" d="M 3513 2113 
L 3513 0 
L 2938 0 
L 2938 2094 
Q 2938 2591 2744 2837 
Q 2550 3084 2163 3084 
Q 1697 3084 1428 2787 
Q 1159 2491 1159 1978 
L 1159 0 
L 581 0 
L 581 3500 
L 1159 3500 
L 1159 2956 
Q 1366 3272 1645 3428 
Q 1925 3584 2291 3584 
Q 2894 3584 3203 3211 
Q 3513 2838 3513 2113 
z
" transform="scale(0.015625)"/>
       <path id="DejaVuSans-73" d="M 2834 3397 
L 2834 2853 
Q 2591 2978 2328 3040 
Q 2066 3103 1784 3103 
Q 1356 3103 1142 2972 
Q 928 2841 928 2578 
Q 928 2378 1081 2264 
Q 1234 2150 1697 2047 
L 1894 2003 
Q 2506 1872 2764 1633 
Q 3022 1394 3022 966 
Q 3022 478 2636 193 
Q 2250 -91 1575 -91 
Q 1294 -91 989 -36 
Q 684 19 347 128 
L 347 722 
Q 666 556 975 473 
Q 1284 391 1588 391 
Q 1994 391 2212 530 
Q 2431 669 2431 922 
Q 2431 1156 2273 1281 
Q 2116 1406 1581 1522 
L 1381 1569 
Q 847 1681 609 1914 
Q 372 2147 372 2553 
Q 372 3047 722 3315 
Q 1072 3584 1716 3584 
Q 2034 3584 2315 3537 
Q 2597 3491 2834 3397 
z
" transform="scale(0.015625)"/>
      </defs>
      <use xlink:href="#DejaVuSans-41"/>
      <use xlink:href="#DejaVuSans-72" transform="translate(68.408203 0)"/>
      <use xlink:href="#DejaVuSans-62" transform="translate(109.521484 0)"/>
      <use xlink:href="#DejaVuSans-69" transform="translate(172.998047 0)"/>
      <use xlink:href="#DejaVuSans-74" transform="translate(200.78125 0)"/>
      <use xlink:href="#DejaVuSans-72" transform="translate(239.990234 0)"/>
      <use xlink:href="#DejaVuSans-61" transform="translate(281.103516 0)"/>
      <use xlink:href="#DejaVuSans-72" transform="translate(342.382812 0)"/>
      <use xlink:href="#DejaVuSans-79" transform="translate(383.496094 0)"/>
      <use xlink:href="#DejaVuSans-20" transform="translate(442.675781 0)"/>
      <use xlink:href="#DejaVuSans-55" transform="translate(474.462891 0)"/>
      <use xlink:href="#DejaVuSans-6e" transform="translate(547.65625 0)"/>
      <use xlink:href="#DejaVuSans-69" transform="translate(611.035156 0)"/>
      <use xlink:href="#DejaVuSans-74" transform="translate(638.818359 0)"/>
      <use xlink:href="#DejaVuSans-73" transform="translate(678.027344 0)"/>
     </g>
     <!-- (limited to 98th percentile) -->
     <g transform="translate(275.475 415.160125) scale(0.16 -0.16)">
      <defs>
       <path id="DejaVuSans-28" d="M 1984 4856 
Q 1566 4138 1362 3434 
Q 1159 2731 1159 2009 
Q 1159 1288 1364 580 
Q 1569 -128 1984 -844 
L 1484 -844 
Q 1016 -109 783 600 
Q 550 1309 550 2009 
Q 550 2706 781 3412 
Q 1013 4119 1484 4856 
L 1984 4856 
z
" transform="scale(0.015625)"/>
       <path id="DejaVuSans-6c" d="M 603 4863 
L 1178 4863 
L 1178 0 
L 603 0 
L 603 4863 
z
" transform="scale(0.015625)"/>
       <path id="DejaVuSans-6d" d="M 3328 2828 
Q 3544 3216 3844 3400 
Q 4144 3584 4550 3584 
Q 5097 3584 5394 3201 
Q 5691 2819 5691 2113 
L 5691 0 
L 5113 0 
L 5113 2094 
Q 5113 2597 4934 2840 
Q 4756 3084 4391 3084 
Q 3944 3084 3684 2787 
Q 3425 2491 3425 1978 
L 3425 0 
L 2847 0 
L 2847 2094 
Q 2847 2600 2669 2842 
Q 2491 3084 2119 3084 
Q 1678 3084 1418 2786 
Q 1159 2488 1159 1978 
L 1159 0 
L 581 0 
L 581 3500 
L 1159 3500 
L 1159 2956 
Q 1356 3278 1631 3431 
Q 1906 3584 2284 3584 
Q 2666 3584 2933 3390 
Q 3200 3197 3328 2828 
z
" transform="scale(0.015625)"/>
       <path id="DejaVuSans-65" d="M 3597 1894 
L 3597 1613 
L 953 1613 
Q 991 1019 1311 708 
Q 1631 397 2203 397 
Q 2534 397 2845 478 
Q 3156 559 3463 722 
L 3463 178 
Q 3153 47 2828 -22 
Q 2503 -91 2169 -91 
Q 1331 -91 842 396 
Q 353 884 353 1716 
Q 353 2575 817 3079 
Q 1281 3584 2069 3584 
Q 2775 3584 3186 3129 
Q 3597 2675 3597 1894 
z
M 3022 2063 
Q 3016 2534 2758 2815 
Q 2500 3097 2075 3097 
Q 1594 3097 1305 2825 
Q 1016 2553 972 2059 
L 3022 2063 
z
" transform="scale(0.015625)"/>
       <path id="DejaVuSans-64" d="M 2906 2969 
L 2906 4863 
L 3481 4863 
L 3481 0 
L 2906 0 
L 2906 525 
Q 2725 213 2448 61 
Q 2172 -91 1784 -91 
Q 1150 -91 751 415 
Q 353 922 353 1747 
Q 353 2572 751 3078 
Q 1150 3584 1784 3584 
Q 2172 3584 2448 3432 
Q 2725 3281 2906 2969 
z
M 947 1747 
Q 947 1113 1208 752 
Q 1469 391 1925 391 
Q 2381 391 2643 752 
Q 2906 1113 2906 1747 
Q 2906 2381 2643 2742 
Q 2381 3103 1925 3103 
Q 1469 3103 1208 2742 
Q 947 2381 947 1747 
z
" transform="scale(0.015625)"/>
       <path id="DejaVuSans-6f" d="M 1959 3097 
Q 1497 3097 1228 2736 
Q 959 2375 959 1747 
Q 959 1119 1226 758 
Q 1494 397 1959 397 
Q 2419 397 2687 759 
Q 2956 1122 2956 1747 
Q 2956 2369 2687 2733 
Q 2419 3097 1959 3097 
z
M 1959 3584 
Q 2709 3584 3137 3096 
Q 3566 2609 3566 1747 
Q 3566 888 3137 398 
Q 2709 -91 1959 -91 
Q 1206 -91 779 398 
Q 353 888 353 1747 
Q 353 2609 779 3096 
Q 1206 3584 1959 3584 
z
" transform="scale(0.015625)"/>
       <path id="DejaVuSans-39" d="M 703 97 
L 703 672 
Q 941 559 1184 500 
Q 1428 441 1663 441 
Q 2288 441 2617 861 
Q 2947 1281 2994 2138 
Q 2813 1869 2534 1725 
Q 2256 1581 1919 1581 
Q 1219 1581 811 2004 
Q 403 2428 403 3163 
Q 403 3881 828 4315 
Q 1253 4750 1959 4750 
Q 2769 4750 3195 4129 
Q 3622 3509 3622 2328 
Q 3622 1225 3098 567 
Q 2575 -91 1691 -91 
Q 1453 -91 1209 -44 
Q 966 3 703 97 
z
M 1959 2075 
Q 2384 2075 2632 2365 
Q 2881 2656 2881 3163 
Q 2881 3666 2632 3958 
Q 2384 4250 1959 4250 
Q 1534 4250 1286 3958 
Q 1038 3666 1038 3163 
Q 1038 2656 1286 2365 
Q 1534 2075 1959 2075 
z
" transform="scale(0.015625)"/>
       <path id="DejaVuSans-38" d="M 2034 2216 
Q 1584 2216 1326 1975 
Q 1069 1734 1069 1313 
Q 1069 891 1326 650 
Q 1584 409 2034 409 
Q 2484 409 2743 651 
Q 3003 894 3003 1313 
Q 3003 1734 2745 1975 
Q 2488 2216 2034 2216 
z
M 1403 2484 
Q 997 2584 770 2862 
Q 544 3141 544 3541 
Q 544 4100 942 4425 
Q 1341 4750 2034 4750 
Q 2731 4750 3128 4425 
Q 3525 4100 3525 3541 
Q 3525 3141 3298 2862 
Q 3072 2584 2669 2484 
Q 3125 2378 3379 2068 
Q 3634 1759 3634 1313 
Q 3634 634 3220 271 
Q 2806 -91 2034 -91 
Q 1263 -91 848 271 
Q 434 634 434 1313 
Q 434 1759 690 2068 
Q 947 2378 1403 2484 
z
M 1172 3481 
Q 1172 3119 1398 2916 
Q 1625 2713 2034 2713 
Q 2441 2713 2670 2916 
Q 2900 3119 2900 3481 
Q 2900 3844 2670 4047 
Q 2441 4250 2034 4250 
Q 1625 4250 1398 4047 
Q 1172 3844 1172 3481 
z
" transform="scale(0.015625)"/>
       <path id="DejaVuSans-68" d="M 3513 2113 
L 3513 0 
L 2938 0 
L 2938 2094 
Q 2938 2591 2744 2837 
Q 2550 3084 2163 3084 
Q 1697 3084 1428 2787 
Q 1159 2491 1159 1978 
L 1159 0 
L 581 0 
L 581 4863 
L 1159 4863 
L 1159 2956 
Q 1366 3272 1645 3428 
Q 1925 3584 2291 3584 
Q 2894 3584 3203 3211 
Q 3513 2838 3513 2113 
z
" transform="scale(0.015625)"/>
       <path id="DejaVuSans-70" d="M 1159 525 
L 1159 -1331 
L 581 -1331 
L 581 3500 
L 1159 3500 
L 1159 2969 
Q 1341 3281 1617 3432 
Q 1894 3584 2278 3584 
Q 2916 3584 3314 3078 
Q 3713 2572 3713 1747 
Q 3713 922 3314 415 
Q 2916 -91 2278 -91 
Q 1894 -91 1617 61 
Q 1341 213 1159 525 
z
M 3116 1747 
Q 3116 2381 2855 2742 
Q 2594 3103 2138 3103 
Q 1681 3103 1420 2742 
Q 1159 2381 1159 1747 
Q 1159 1113 1420 752 
Q 1681 391 2138 391 
Q 2594 391 2855 752 
Q 3116 1113 3116 1747 
z
" transform="scale(0.015625)"/>
       <path id="DejaVuSans-63" d="M 3122 3366 
L 3122 2828 
Q 2878 2963 2633 3030 
Q 2388 3097 2138 3097 
Q 1578 3097 1268 2742 
Q 959 2388 959 1747 
Q 959 1106 1268 751 
Q 1578 397 2138 397 
Q 2388 397 2633 464 
Q 2878 531 3122 666 
L 3122 134 
Q 2881 22 2623 -34 
Q 2366 -91 2075 -91 
Q 1284 -91 818 406 
Q 353 903 353 1747 
Q 353 2603 823 3093 
Q 1294 3584 2113 3584 
Q 2378 3584 2631 3529 
Q 2884 3475 3122 3366 
z
" transform="scale(0.015625)"/>
       <path id="DejaVuSans-29" d="M 513 4856 
L 1013 4856 
Q 1481 4119 1714 3412 
Q 1947 2706 1947 2009 
Q 1947 1309 1714 600 
Q 1481 -109 1013 -844 
L 513 -844 
Q 928 -128 1133 580 
Q 1338 1288 1338 2009 
Q 1338 2731 1133 3434 
Q 928 4138 513 4856 
z
" transform="scale(0.015625)"/>
      </defs>
      <use xlink:href="#DejaVuSans-28"/>
      <use xlink:href="#DejaVuSans-6c" transform="translate(39.013672 0)"/>
      <use xlink:href="#DejaVuSans-69" transform="translate(66.796875 0)"/>
      <use xlink:href="#DejaVuSans-6d" transform="translate(94.580078 0)"/>
      <use xlink:href="#DejaVuSans-69" transform="translate(191.992188 0)"/>
      <use xlink:href="#DejaVuSans-74" transform="translate(219.775391 0)"/>
      <use xlink:href="#DejaVuSans-65" transform="translate(258.984375 0)"/>
      <use xlink:href="#DejaVuSans-64" transform="translate(320.507812 0)"/>
      <use xlink:href="#DejaVuSans-20" transform="translate(383.984375 0)"/>
      <use xlink:href="#DejaVuSans-74" transform="translate(415.771484 0)"/>
      <use xlink:href="#DejaVuSans-6f" transform="translate(454.980469 0)"/>
      <use xlink:href="#DejaVuSans-20" transform="translate(516.162109 0)"/>
      <use xlink:href="#DejaVuSans-39" transform="translate(547.949219 0)"/>
      <use xlink:href="#DejaVuSans-38" transform="translate(611.572266 0)"/>
      <use xlink:href="#DejaVuSans-74" transform="translate(675.195312 0)"/>
      <use xlink:href="#DejaVuSans-68" transform="translate(714.404297 0)"/>
      <use xlink:href="#DejaVuSans-20" transform="translate(777.783203 0)"/>
      <use xlink:href="#DejaVuSans-70" transform="translate(809.570312 0)"/>
      <use xlink:href="#DejaVuSans-65" transform="translate(873.046875 0)"/>
      <use xlink:href="#DejaVuSans-72" transform="translate(934.570312 0)"/>
      <use xlink:href="#DejaVuSans-63" transform="translate(973.433594 0)"/>
      <use xlink:href="#DejaVuSans-65" transform="translate(1028.414062 0)"/>
      <use xlink:href="#DejaVuSans-6e" transform="translate(1089.9375 0)"/>
      <use xlink:href="#DejaVuSans-74" transform="translate(1153.316406 0)"/>
      <use xlink:href="#DejaVuSans-69" transform="translate(1192.525391 0)"/>
      <use xlink:href="#DejaVuSans-6c" transform="translate(1220.308594 0)"/>
      <use xlink:href="#DejaVuSans-65" transform="translate(1248.091797 0)"/>
      <use xlink:href="#DejaVuSans-29" transform="translate(1309.615234 0)"/>
     </g>
    </g>
   </g>
   <g id="matplotlib.axis_2">
    <g id="ytick_1">
     <g id="line2d_8">
      <defs>
       <path id="m97cdfab354" d="M 0 0 
L -3.5 0 
" style="stroke: #000000; stroke-width: 0.8"/>
      </defs>
      <g>
       <use xlink:href="#m97cdfab354" x="57.53" y="364.408" style="stroke: #000000; stroke-width: 0.8"/>
      </g>
     </g>
     <g id="text_9">
      <!-- 0 -->
      <g transform="translate(44.1675 368.207219) scale(0.1 -0.1)">
       <use xlink:href="#DejaVuSans-30"/>
      </g>
     </g>
    </g>
    <g id="ytick_2">
     <g id="line2d_9">
      <g>
       <use xlink:href="#m97cdfab354" x="57.53" y="323.212495" style="stroke: #000000; stroke-width: 0.8"/>
      </g>
     </g>
     <g id="text_10">
      <!-- 100 -->
      <g transform="translate(31.4425 327.011714) scale(0.1 -0.1)">
       <use xlink:href="#DejaVuSans-31"/>
       <use xlink:href="#DejaVuSans-30" transform="translate(63.623047 0)"/>
       <use xlink:href="#DejaVuSans-30" transform="translate(127.246094 0)"/>
      </g>
     </g>
    </g>
    <g id="ytick_3">
     <g id="line2d_10">
      <g>
       <use xlink:href="#m97cdfab354" x="57.53" y="282.01699" style="stroke: #000000; stroke-width: 0.8"/>
      </g>
     </g>
     <g id="text_11">
      <!-- 200 -->
      <g transform="translate(31.4425 285.816209) scale(0.1 -0.1)">
       <use xlink:href="#DejaVuSans-32"/>
       <use xlink:href="#DejaVuSans-30" transform="translate(63.623047 0)"/>
       <use xlink:href="#DejaVuSans-30" transform="translate(127.246094 0)"/>
      </g>
     </g>
    </g>
    <g id="ytick_4">
     <g id="line2d_11">
      <g>
       <use xlink:href="#m97cdfab354" x="57.53" y="240.821485" style="stroke: #000000; stroke-width: 0.8"/>
      </g>
     </g>
     <g id="text_12">
      <!-- 300 -->
      <g transform="translate(31.4425 244.620704) scale(0.1 -0.1)">
       <use xlink:href="#DejaVuSans-33"/>
       <use xlink:href="#DejaVuSans-30" transform="translate(63.623047 0)"/>
       <use xlink:href="#DejaVuSans-30" transform="translate(127.246094 0)"/>
      </g>
     </g>
    </g>
    <g id="ytick_5">
     <g id="line2d_12">
      <g>
       <use xlink:href="#m97cdfab354" x="57.53" y="199.62598" style="stroke: #000000; stroke-width: 0.8"/>
      </g>
     </g>
     <g id="text_13">
      <!-- 400 -->
      <g transform="translate(31.4425 203.425199) scale(0.1 -0.1)">
       <use xlink:href="#DejaVuSans-34"/>
       <use xlink:href="#DejaVuSans-30" transform="translate(63.623047 0)"/>
       <use xlink:href="#DejaVuSans-30" transform="translate(127.246094 0)"/>
      </g>
     </g>
    </g>
    <g id="ytick_6">
     <g id="line2d_13">
      <g>
       <use xlink:href="#m97cdfab354" x="57.53" y="158.430475" style="stroke: #000000; stroke-width: 0.8"/>
      </g>
     </g>
     <g id="text_14">
      <!-- 500 -->
      <g transform="translate(31.4425 162.229693) scale(0.1 -0.1)">
       <use xlink:href="#DejaVuSans-35"/>
       <use xlink:href="#DejaVuSans-30" transform="translate(63.623047 0)"/>
       <use xlink:href="#DejaVuSans-30" transform="translate(127.246094 0)"/>
      </g>
     </g>
    </g>
    <g id="ytick_7">
     <g id="line2d_14">
      <g>
       <use xlink:href="#m97cdfab354" x="57.53" y="117.23497" style="stroke: #000000; stroke-width: 0.8"/>
      </g>
     </g>
     <g id="text_15">
      <!-- 600 -->
      <g transform="translate(31.4425 121.034188) scale(0.1 -0.1)">
       <use xlink:href="#DejaVuSans-36"/>
       <use xlink:href="#DejaVuSans-30" transform="translate(63.623047 0)"/>
       <use xlink:href="#DejaVuSans-30" transform="translate(127.246094 0)"/>
      </g>
     </g>
    </g>
    <g id="ytick_8">
     <g id="line2d_15">
      <g>
       <use xlink:href="#m97cdfab354" x="57.53" y="76.039465" style="stroke: #000000; stroke-width: 0.8"/>
      </g>
     </g>
     <g id="text_16">
      <!-- 700 -->
      <g transform="translate(31.4425 79.838683) scale(0.1 -0.1)">
       <defs>
        <path id="DejaVuSans-37" d="M 525 4666 
L 3525 4666 
L 3525 4397 
L 1831 0 
L 1172 0 
L 2766 4134 
L 525 4134 
L 525 4666 
z
" transform="scale(0.015625)"/>
       </defs>
       <use xlink:href="#DejaVuSans-37"/>
       <use xlink:href="#DejaVuSans-30" transform="translate(63.623047 0)"/>
       <use xlink:href="#DejaVuSans-30" transform="translate(127.246094 0)"/>
      </g>
     </g>
    </g>
    <g id="ytick_9">
     <g id="line2d_16">
      <g>
       <use xlink:href="#m97cdfab354" x="57.53" y="34.84396" style="stroke: #000000; stroke-width: 0.8"/>
      </g>
     </g>
     <g id="text_17">
      <!-- 800 -->
      <g transform="translate(31.4425 38.643178) scale(0.1 -0.1)">
       <use xlink:href="#DejaVuSans-38"/>
       <use xlink:href="#DejaVuSans-30" transform="translate(63.623047 0)"/>
       <use xlink:href="#DejaVuSans-30" transform="translate(127.246094 0)"/>
      </g>
     </g>
    </g>
    <g id="text_18">
     <!-- Count -->
     <g transform="translate(24.115 222.2815) rotate(-90) scale(0.16 -0.16)">
      <defs>
       <path id="DejaVuSans-43" d="M 4122 4306 
L 4122 3641 
Q 3803 3938 3442 4084 
Q 3081 4231 2675 4231 
Q 1875 4231 1450 3742 
Q 1025 3253 1025 2328 
Q 1025 1406 1450 917 
Q 1875 428 2675 428 
Q 3081 428 3442 575 
Q 3803 722 4122 1019 
L 4122 359 
Q 3791 134 3420 21 
Q 3050 -91 2638 -91 
Q 1578 -91 968 557 
Q 359 1206 359 2328 
Q 359 3453 968 4101 
Q 1578 4750 2638 4750 
Q 3056 4750 3426 4639 
Q 3797 4528 4122 4306 
z
" transform="scale(0.015625)"/>
       <path id="DejaVuSans-75" d="M 544 1381 
L 544 3500 
L 1119 3500 
L 1119 1403 
Q 1119 906 1312 657 
Q 1506 409 1894 409 
Q 2359 409 2629 706 
Q 2900 1003 2900 1516 
L 2900 3500 
L 3475 3500 
L 3475 0 
L 2900 0 
L 2900 538 
Q 2691 219 2414 64 
Q 2138 -91 1772 -91 
Q 1169 -91 856 284 
Q 544 659 544 1381 
z
M 1991 3584 
L 1991 3584 
z
" transform="scale(0.015625)"/>
      </defs>
      <use xlink:href="#DejaVuSans-43"/>
      <use xlink:href="#DejaVuSans-6f" transform="translate(69.824219 0)"/>
      <use xlink:href="#DejaVuSans-75" transform="translate(131.005859 0)"/>
      <use xlink:href="#DejaVuSans-6e" transform="translate(194.384766 0)"/>
      <use xlink:href="#DejaVuSans-74" transform="translate(257.763672 0)"/>
     </g>
    </g>
   </g>
   <g id="patch_103">
    <path d="M 57.53 364.408 
L 57.53 32.64 
" style="fill: none; stroke: #000000; stroke-width: 0.8; stroke-linejoin: miter; stroke-linecap: square"/>
   </g>
   <g id="patch_104">
    <path d="M 709.2 364.408 
L 709.2 32.64 
" style="fill: none; stroke: #000000; stroke-width: 0.8; stroke-linejoin: miter; stroke-linecap: square"/>
   </g>
   <g id="patch_105">
    <path d="M 57.53 364.408 
L 709.2 364.408 
" style="fill: none; stroke: #000000; stroke-width: 0.8; stroke-linejoin: miter; stroke-linecap: square"/>
   </g>
   <g id="patch_106">
    <path d="M 57.53 32.64 
L 709.2 32.64 
" style="fill: none; stroke: #000000; stroke-width: 0.8; stroke-linejoin: miter; stroke-linecap: square"/>
   </g>
   <g id="text_19">
    <!-- S0 -->
    <g transform="translate(370.654063 26.64) scale(0.2 -0.2)">
     <defs>
      <path id="DejaVuSans-53" d="M 3425 4513 
L 3425 3897 
Q 3066 4069 2747 4153 
Q 2428 4238 2131 4238 
Q 1616 4238 1336 4038 
Q 1056 3838 1056 3469 
Q 1056 3159 1242 3001 
Q 1428 2844 1947 2747 
L 2328 2669 
Q 3034 2534 3370 2195 
Q 3706 1856 3706 1288 
Q 3706 609 3251 259 
Q 2797 -91 1919 -91 
Q 1588 -91 1214 -16 
Q 841 59 441 206 
L 441 856 
Q 825 641 1194 531 
Q 1563 422 1919 422 
Q 2459 422 2753 634 
Q 3047 847 3047 1241 
Q 3047 1584 2836 1778 
Q 2625 1972 2144 2069 
L 1759 2144 
Q 1053 2284 737 2584 
Q 422 2884 422 3419 
Q 422 4038 858 4394 
Q 1294 4750 2059 4750 
Q 2388 4750 2728 4690 
Q 3069 4631 3425 4513 
z
" transform="scale(0.015625)"/>
     </defs>
     <use xlink:href="#DejaVuSans-53"/>
     <use xlink:href="#DejaVuSans-30" transform="translate(63.476562 0)"/>
    </g>
   </g>
  </g>
 </g>
 <defs>
  <clipPath id="peac529aa9c">
   <rect x="57.53" y="32.64" width="651.67" height="331.768"/>
  </clipPath>
 </defs>
</svg>
